<svg xmlns="http://www.w3.org/2000/svg" viewBox="0 0 10.173 9.959" height="37.64" width="38.45"><g style="line-height:1.25" aria-label="tp" font-weight="400" font-size="40" font-family="Merriweather" letter-spacing="0" word-spacing="0"><path style="-inkscape-font-specification:Merriweather" d="M1.958 7.504q-.603 0-.9-.276-.296-.275-.296-.941V2.223H0v-.477q.053-.01.296-.074.244-.063.328-.116.17-.095.265-.381.085-.201.201-.646.117-.444.138-.529h.624l.021 1.524h1.768v.699H1.873v3.249q0 .603.032.846.042.244.159.318.127.074.423.074.286 0 .625-.074.349-.074.54-.159l.158.476q-.254.19-.825.37-.561.18-1.027.18zM10.173 4.255q0 .9-.37 1.65-.37.741-1.059 1.175-.687.434-1.608.434-.254 0-.55-.042-.297-.042-.477-.106l.032.889v1.069l1.1.116v.519H4.29V9.44l.762-.116V2.339l-.773-.19v-.572l1.503-.19h.021l.223.19V2.2q.317-.349.783-.592.476-.244 1.058-.244.624 0 1.143.307.53.307.847.953.317.645.317 1.63zm-2.74-2.149q-.403 0-.752.17-.35.169-.54.37v3.99q.074.127.37.233.307.095.667.095.815 0 1.312-.646.508-.645.508-1.947 0-1.143-.444-1.704-.434-.56-1.122-.56z"/></g></svg>