<svg fill="#666" xmlns="http://www.w3.org/2000/svg" width="100" height="100"><path d="M57.897 78.558c-1.513-.888-2.902-2.416-3.456-3.889-.56-1.484-.489-4.49-.489-9.713V41.878H74.94V25.815H53.953V5H41.04c-.576 4.636-1.637 8.466-3.176 11.47-1.542 3.008-3.576 5.578-6.126 7.726-2.538 2.144-6.674 3.796-10.238 4.936v12.746h12.329V73.44c0 4.12.437 7.264 1.306 9.428.873 2.162 2.432 4.211 4.684 6.139 2.252 1.907 4.971 3.395 8.161 4.441C51.166 94.483 53.616 95 57.766 95c3.65 0 7.049-.368 10.2-1.088 3.147-.738 6.661-2.009 10.534-3.812V75.901c-4.545 2.964-9.116 4.44-13.713 4.44-2.587.001-4.874-.594-6.89-1.783z"/></svg>